<?xml version="1.0" encoding="UTF-8"?>
<svg width="198px" height="50px" viewBox="0 0 198 50" version="1.1" xmlns="http://www.w3.org/2000/svg" xmlns:xlink="http://www.w3.org/1999/xlink">
    <!-- Generator: Sketch 44 (41411) - http://www.bohemiancoding.com/sketch -->
    <title>logo-magnolia</title>
    <desc>Created with Sketch.</desc>
    <defs></defs>
    <g id="Page-1" stroke="none" stroke-width="1" fill="none" fill-rule="evenodd">
        <g id="logo-magnolia" fill="#FFFFFF">
            <g id="magnolia_cmyk">
                <path d="M79.0007175,10 L78.5004783,10 C71.6236965,10 67,13.4853599 67,18.3630463 C67,21.9665369 70.2485411,24 75.9992825,24 C82.8760643,24 88,20.569162 88,15.8075869 C88,12.2666955 84.5003348,10 79.0007175,10 Z M83.0502858,37.4734151 C81.1942673,36.8854806 79.0936956,36.4734151 75.2613702,35.9447853 C71.0512799,35.2965235 68.3313727,35 66.8461602,35 L66.3510894,35 C64.4940767,35.1196319 60.9082926,35.9447853 58.0621324,36.9437628 C53.9802833,38.4130879 52,40.0633947 52,42.1226994 C52,45.6492843 58.9299975,48 69.3175379,48 C79.837296,48 88,45.1809816 88,41.4713701 C88,39.8251534 86.2702344,38.4130879 83.0502858,37.4734151 Z M104.000286,10.5743733 L101.877589,12.0143108 C99.3509499,11.5993461 96.0214255,11.6252192 96.0214255,11.6252192 C97.8971575,13.1198882 98.3970861,14.0970952 98.3970861,15.8256172 C98.3970861,21.635123 88.7684616,26.2385443 76.3912298,26.2385443 C72.88973,26.2385443 69.761177,26.0076766 66.5076418,25.375776 C64.1309813,26.2962612 63.2561063,26.8724352 63.2561063,27.7939156 C63.2561063,28.4248211 63.881017,29.0607023 64.7578917,29.517462 C66.7596058,30.3822205 69.1342665,30.8419656 77.0141408,31.8758944 C87.0167119,33.1994029 89.7693187,33.7775672 92.6469076,34.811496 C96.0214255,36.0195707 97.7711755,37.800834 97.7711755,39.8189357 C97.7711755,45.6284415 85.1419797,50 68.0094272,50 C53.0015712,50 43,46.8962233 43,42.2908117 C43,40.3951097 44.6277675,38.7252997 47.7523211,37.4007961 C50.0039994,36.4215988 52.0047136,35.7906933 57.3819454,34.4671848 L60.8814455,33.6044164 C55.5052135,32.3356395 53.2535352,31.2439937 53.2535352,29.9204852 C53.2535352,28.8845662 54.8803028,27.5600626 58.133838,26.2385443 L60.7564634,25.1468985 L62.6331953,24.3398569 C59.1336952,22.671042 57.62991,20.9445103 57.62991,18.7005165 C57.62991,12.6034213 67.7594629,8 81.0175689,8 C84.6420511,8 86.8937295,8.23086765 90.6431938,8.97820215 L101.424654,8.97820215 C106.296958,8.97820215 102.107556,9.34341089 105.734038,9.11254324 L106,9.46481543 L104.000286,10.5743733 L104.000286,10.5743733 Z" id="Fill-1"></path>
                <path d="M113.294971,32 L113.294971,18.2518158 C113.294971,15.150872 111.32054,14.1065542 109.521122,14.1065542 C107.719693,14.1065542 105.702012,15.150872 105.702012,18.2518158 L105.702012,32 L100,32 L100,9.26207976 L105.573266,9.26207976 L105.573266,11.355717 C107.065908,9.78623929 109.17009,9 111.27729,9 C113.558497,9 115.403176,9.7442265 116.672525,11.007611 C118.517205,12.8391684 119,14.9778193 119,17.4645762 L119,32 L113.294971,32" id="Fill-2"></path>
                <path d="M135.672746,14.9976234 C135.009119,14.3468261 134.12462,14 132.975684,14 C131.825735,14 130.986829,14.3468261 130.323202,14.9976234 C129.130699,16.1736431 129,18.1300215 129,20.4780742 C129,22.826127 129.130699,24.8253603 130.323202,25.9963968 C130.986829,26.6521772 131.825735,27 132.975684,27 C134.12462,27 135.009119,26.6521772 135.672746,25.9963968 C136.867275,24.8253603 137,22.826127 137,20.4780742 C137,18.1300215 136.867275,16.1736431 135.672746,14.9976234 Z M139.457844,29.2418599 C138.078127,30.7079874 135.794729,32 132.477285,32 C129.160828,32 126.917923,30.7079874 125.540181,29.2418599 C123.514555,27.1257689 123,24.5793367 123,20.4807088 C123,16.4236311 123.514555,13.8781883 125.540181,11.7630866 C126.917923,10.2949804 129.160828,9 132.477285,9 C135.794729,9 138.078127,10.2949804 139.457844,11.7630866 C141.48347,13.8781883 142,16.4236311 142,20.4807088 C142,24.5793367 141.48347,27.1257689 139.457844,29.2418599 L139.457844,29.2418599 Z" id="Fill-3"></path>
                <path d="M153.722425,31 C148.990065,31 147,27.7337432 147,24.5133917 L147,0 L152.750203,0 L152.750203,24.1651107 C152.750203,25.5143253 153.32502,26.2108872 154.787916,26.2108872 L157,26.2108872 L157,31 L153.722425,31" id="Fill-4"></path>
                <path d="M160,31 L166,31 L166,8 L160,8 L160,31 Z M160,5 L166,5 L166,0 L160,0 L160,5 Z" id="Fill-5"></path>
                <path d="M184,22 L179.319437,22 C177.180823,22 176,22.9232845 176,24.4787972 C176,25.9928682 177.093278,27 179.409067,27 C181.049505,27 182.093799,26.8756746 183.138093,25.9523901 C183.773841,25.4020817 184,24.5192753 184,23.1738628 L184,22 Z M183.401244,31.7879088 L183.401244,29.8404361 C181.858328,31.3548067 180.40736,32 177.759041,32 C175.160232,32 173.263667,31.3548067 171.898585,30.0148662 C170.660817,28.7591675 170,26.9425173 170,24.9534192 C170,21.3666997 172.513933,18.4271556 177.847958,18.4271556 L183.267869,18.4271556 L183.267869,17.3002973 C183.267869,14.8384539 182.036163,13.7552032 178.994788,13.7552032 C176.790045,13.7552032 175.77558,14.2775025 174.586311,15.6144698 L170.925548,12.1119921 C173.17475,9.69276511 175.381515,9 179.216071,9 C185.651457,9 189,11.6818632 189,16.9563925 L189,31.7879088 L183.401244,31.7879088 L183.401244,31.7879088 Z" id="Fill-6"></path>
                <path d="M26.3472547,32 L26.3472547,18.2518158 C26.3472547,15.150872 24.3899218,14.1065542 22.6079915,14.1065542 C20.8689153,14.1065542 18.8258744,15.150872 18.8258744,18.1217762 L18.8258744,32 L13.1751222,32 L13.1751222,18.2518158 C13.1751222,15.150872 11.2167928,14.1065542 9.4358591,14.1065542 C7.6529322,14.1065542 5.65174873,15.150872 5.65174873,18.2518158 L5.65174873,32 L0,32 L0,9.26207976 L5.52219004,9.26207976 L5.52219004,11.355717 C6.99915911,9.83125299 9.08704725,9 11.1739388,9 C13.6943536,9 15.7383911,9.91527856 17.1735028,11.8788762 C19.0859884,9.87226547 21.1300258,9 23.9573951,9 C26.2166994,9 28.2597403,9.7442265 29.5214426,11.007611 C31.3472235,12.8391684 32,14.9778193 32,17.4645762 L32,32 L26.3472547,32" id="Fill-7"></path>
                <path d="M49,22 L44.3185725,22 C42.1805158,22 41,22.9232845 41,24.4787972 C41,25.9928682 42.0909091,27 44.4081792,27 C46.0450638,27 47.0911696,26.8756746 48.1372753,25.9523901 C48.7707736,25.4020817 49,24.5192753 49,23.1738628 L49,22 Z M48.4026699,31.7879088 L48.4026699,29.8404361 C46.8585789,31.3548067 45.4034145,32 42.7588554,32 C40.1577492,32 38.2630039,31.3548067 36.8957558,30.0148662 C35.6608871,28.7591675 35,26.9425173 35,24.9534192 C35,21.3666997 37.5131901,18.4271556 42.8467716,18.4271556 L48.2692799,18.4271556 L48.2692799,17.3002973 C48.2692799,14.8384539 47.0354218,13.7552032 43.9937241,13.7552032 C41.7897564,13.7552032 40.7751835,14.2775025 39.5847782,15.6144698 L35.9256462,12.1119921 C38.1740772,9.69276511 40.3780449,9 44.2140198,9 C50.6500904,9 54,11.6818632 54,16.9563925 L54,31.7879088 L48.4026699,31.7879088 L48.4026699,31.7879088 Z" id="Fill-8"></path>
                <path d="M192.591107,6 L192,6 L192,6.889 L192.591107,6.889 C192.846556,6.889 193,6.678 193,6.443 C193,6.21 192.846556,6 192.591107,6 Z M193.538184,9 L192.798389,7.50735461 L192.25965,7.50735461 L192.25965,9 L191,9 L191,5 L193.194946,5 C194.286865,5 194.82005,5.63362752 194.82005,6.28897941 C194.82005,6.83027834 194.469036,7.16791129 194.078034,7.32722335 L195,9 L193.538184,9 L193.538184,9 Z" id="Fill-9"></path>
                <path d="M190,7.5 C190,9.52805733 191.471845,11 193.500546,11 C195.528155,11 197,9.52805733 197,7.5 C197,5.47194267 195.528155,4 193.500546,4 C191.471845,4 190,5.47194267 190,7.5 Z M189,7.4994827 C189,5.01850787 191.019436,3 193.500518,3 C195.980564,3 198,5.01850787 198,7.4994827 C198,9.98149213 195.980564,12 193.500518,12 C191.019436,12 189,9.98149213 189,7.4994827 L189,7.4994827 Z" id="Fill-10"></path>
            </g>
        </g>
    </g>
</svg>