<svg width="133" height="153" viewBox="0 0 133 153" fill="none" xmlns="http://www.w3.org/2000/svg">
<path d="M127.584 35.5318L70.5632 2.61438L66.049 0L61.5349 2.61438L4.51415 35.5318L0 38.1462V43.3749V109.21V114.438L4.51415 117.053L61.5349 149.97L66.049 152.585L70.5632 149.97L127.584 117.053L132.098 114.438V109.21V43.3749V38.1462L127.584 35.5318ZM36.9447 125.371V94.1176L8.90949 77.956V43.4938L37.895 26.738L66.2866 43.0184L94.203 26.738L122.595 43.1372L94.4406 59.4177L66.1678 75.9358V142.127H66.049L36.9447 125.371ZM95.2722 125.253V92.0974L123.07 76.0547V109.329L95.2722 125.253Z" fill="#242424"/>
<path opacity="0.2" d="M9.02829 43.3749L66.1678 75.9358V142.127L66.049 142.246L36.9447 125.371V94.1177L9.02829 77.8372V43.3749Z" fill="#242424"/>
</svg>
