<svg width="151" height="174" viewBox="0 0 151 174" fill="none" xmlns="http://www.w3.org/2000/svg">
<g clip-path="url(#clip0_356_10)">
<path fill-rule="evenodd" clip-rule="evenodd" d="M75.049 0.606812L150.098 43.9509V130.633L75.049 173.978L0 130.633V43.9509L75.049 0.606812Z" fill="white"/>
<path d="M136.584 46.5318L79.5632 13.6144L75.049 11L70.5349 13.6144L13.5142 46.5318L9 49.1462V54.3749V120.21V125.438L13.5142 128.053L70.5349 160.97L75.049 163.585L79.5632 160.97L136.584 128.053L141.098 125.438V120.21V54.3749V49.1462L136.584 46.5318ZM45.9447 136.371V105.118L17.9095 88.956V54.4938L46.895 37.738L75.2866 54.0184L103.203 37.738L131.595 54.1372L103.441 70.4177L75.1678 86.9358V153.127H75.049L45.9447 136.371ZM104.272 136.253V103.097L132.07 87.0547V120.329L104.272 136.253Z" fill="#23313E"/>
<path opacity="0.2" d="M18.0283 54.3749L75.1678 86.9358V153.127L75.049 153.246L45.9447 136.371V105.118L18.0283 88.8372V54.3749Z" fill="#23313E"/>
</g>
<defs>
<clipPath id="clip0_356_10">
<rect width="151" height="174" fill="white"/>
</clipPath>
</defs>
</svg>
